<svg id="Layer_1" data-name="Layer 1" xmlns="http://www.w3.org/2000/svg" viewBox="0 0 100.86 78.46"><defs><style>.cls-1{fill:#8d8741;}</style></defs><title>cart</title><path class="cls-1" d="M92.83,57.5h-63L16.35,6H3A3,3,0,0,1,3,0H21l13.5,51.5H92.83a3,3,0,0,1,0,6Z"/><path class="cls-1" d="M92.84,57.5l-.34,0a3,3,0,0,1-2.65-3.32L94.14,16H21.29a3,3,0,0,1,0-6h79.57l-5,44.84A3,3,0,0,1,92.84,57.5Z"/><path class="cls-1" d="M96,29.11H24.72a3,3,0,0,1,0-6H96a3,3,0,0,1,0,6Z"/><path class="cls-1" d="M94.11,46.17H29.33a3,3,0,0,1,0-6H94.11a3,3,0,0,1,0,6Z"/><path class="cls-1" d="M46.33,57.5a3,3,0,0,1-3-3V13a3,3,0,0,1,6,0V54.5A3,3,0,0,1,46.33,57.5Z"/><path class="cls-1" d="M74.83,57.5a3,3,0,0,1-3-3V13a3,3,0,0,1,6,0V54.5A3,3,0,0,1,74.83,57.5Z"/><circle class="cls-1" cx="38.96" cy="69.5" r="8.96"/><circle class="cls-1" cx="88.15" cy="69.5" r="8.96"/></svg>