<svg id="Layer_1" data-name="Layer 1" xmlns="http://www.w3.org/2000/svg" viewBox="0 0 192.4 120.81"><defs><style>.cls-1{fill:#8d8741;}</style></defs><title>company-favicon</title><path class="cls-1" d="M84.6,81.11a67.65,67.65,0,0,0-10.48.18C77.87,98.7,55.22,115.35,45.68,118A52.66,52.66,0,0,1,31.83,120c-6.55,0-12.91-1.5-18.71-6C6,109,0,100.38,0,84.85,0,45,38,9.62,59.15,2.33A39,39,0,0,1,72.81.08,22.71,22.71,0,0,1,85.54,3.63C94.52,10.18,97,19,97,24a26.24,26.24,0,0,1-2.43,10.11c-2.06,4.86-5,12.16-7.11,17.59-.94,2.43-3.18,4.3-6.74,1.49s-6.73-6.54-6.73-12.35a20.17,20.17,0,0,1,1.68-8c5.24-13.48,7.11-18.72,5-20.77C75.25,6.44,47.18,22.53,30.33,48.17c-9.91,15.16-13.47,31.07-13.47,43,0,14.41,4.68,19.28,10.67,19.28,9.92,0,23.2-10.3,32-26.76-4.87.93-9.36,1.49-13.1,1.87-9.73.75-16.84-3.56-19.65-9.36-1.12-2.8-.19-4.68,3.55-4.68a136.52,136.52,0,0,0,21.9-2.8C58.59,67.82,64.39,66.7,70,66.7c10.29-.19,15.9,4.11,18.52,10.1C89.65,79.61,89.84,81.48,84.6,81.11Z" transform="translate(-0.02 -0.08)"/><path class="cls-1" d="M133.84,117.6A351,351,0,0,0,112,80.54c-6,11.61-12,24.15-17.4,37.25-1.5,3.55-3.93,4.3-6.55.93a17.93,17.93,0,0,1-3-10.11,45.41,45.41,0,0,1,1.68-11.22c4.68-15.53,36.5-78,47.91-93.94,2.81-3.75,5.24-3.56,7.67.37a17.72,17.72,0,0,1,2.06,8.24c0,4.86-1.31,11.6-6,19.83C131,45,129.54,47.24,124.11,57.15,145.82,40.31,169.4,21.6,186.05,2c2.06-2.43,4.68-1.87,5.8,1.5,1.31,3.74.75,10.85-6.17,20.21-8.05,11.23-33.31,33.12-57.45,50.52C133.66,83,138.71,91.77,141,96.64a33.93,33.93,0,0,1,2.81,12,16.65,16.65,0,0,1-3.18,9.55C138.71,120.78,135.71,121.15,133.84,117.6Z" transform="translate(-0.02 -0.08)"/></svg>